ffmpeg version 7.1.1 Copyright (c) 2000-2025 the FFmpeg developers
  built with Apple clang version 17.0.0 (clang-1700.0.13.3)
  configuration: --prefix=/opt/homebrew/Cellar/ffmpeg/7.1.1_5 --enable-shared --enable-pthreads --enable-version3 --cc=clang --host-cflags= --host-ldflags='-Wl,-ld_classic' --enable-ffplay --enable-gnutls --enable-gpl --enable-libaom --enable-libaribb24 --enable-libbluray --enable-libdav1d --enable-libharfbuzz --enable-libjxl --enable-libmp3lame --enable-libopus --enable-librav1e --enable-librist --enable-librubberband --enable-libsnappy --enable-libsrt --enable-libssh --enable-libsvtav1 --enable-libtesseract --enable-libtheora --enable-libvidstab --enable-libvmaf --enable-libvorbis --enable-libvpx --enable-libwebp --enable-libx264 --enable-libx265 --enable-libxml2 --enable-libxvid --enable-lzma --enable-libfontconfig --enable-libfreetype --enable-frei0r --enable-libass --enable-libopencore-amrnb --enable-libopencore-amrwb --enable-libopenjpeg --enable-libspeex --enable-libsoxr --enable-libzmq --enable-libzimg --disable-libjack --disable-indev=jack --enable-videotoolbox --enable-audiotoolbox --enable-neon
  libavutil      59. 39.100 / 59. 39.100
  libavcodec     61. 19.101 / 61. 19.101
  libavformat    61.  7.100 / 61.  7.100
  libavdevice    61.  3.100 / 61.  3.100
  libavfilter    10.  4.100 / 10.  4.100
  libswscale      8.  3.100 /  8.  3.100
  libswresample   5.  3.100 /  5.  3.100
  libpostproc    58.  3.100 / 58.  3.100
Input #0, matroska,webm, from 'uploads/e885c5015aeb9676f4b4c77d55306468':
  Metadata:
    encoder         : WebKit
  Duration: N/A, start: 0.000000, bitrate: N/A
  Stream #0:0(eng): Video: vp9 (Profile 0), yuv420p(tv), 4764x2402, SAR 1:1 DAR 2382:1201, 1k tbr, 1k tbn (default)
Stream mapping:
  Stream #0:0 -> #0:0 (vp9 (native) -> prores (prores_ks))
Press [q] to stop, [?] for help
Output #0, mov, to 'uploads/converted-1756154198893.mov':
  Metadata:
    encoder         : Lavf61.7.100
  Stream #0:0(eng): Video: prores (HQ) (apch / 0x68637061), yuv422p10le(tv, progressive), 4764x2402 [SAR 1:1 DAR 2382:1201], q=2-31, 200 kb/s, 1k fps, 16k tbn (default)
      Metadata:
        encoder         : Lavc61.19.101 prores_ks
frame=    3 fps=0.0 q=-0.0 size=     768KiB time=00:00:00.03 bitrate=174770.7kbits/s speed=0.0713x    frame=   21 fps= 21 q=-0.0 size=    7936KiB time=00:00:00.40 bitrate=158953.5kbits/s speed=0.405x    frame=   42 fps= 28 q=-0.0 size=   16384KiB time=00:00:00.77 bitrate=172961.4kbits/s speed=0.514x    frame=   57 fps= 28 q=-0.0 size=   22528KiB time=00:00:01.02 bitrate=180048.5kbits/s speed=0.509x    frame=   74 fps= 29 q=-0.0 size=   29440KiB time=00:00:01.32 bitrate=181879.9kbits/s speed=0.526x    frame=   93 fps= 31 q=-0.0 size=   37120KiB time=00:00:01.64 bitrate=185193.3kbits/s speed=0.544x    frame=  111 fps= 32 q=-0.0 size=   44544KiB time=00:00:01.95 bitrate=186270.9kbits/s speed=0.556x    frame=  130 fps= 32 q=-0.0 size=   51968KiB time=00:00:02.29 bitrate=185742.6kbits/s speed=0.569x    frame=  148 fps= 33 q=-0.0 size=   58880KiB time=00:00:02.60 bitrate=184877.4kbits/s speed=0.576x    frame=  166 fps= 33 q=-0.0 size=   66048KiB time=00:00:02.92 bitrate=184916.4kbits/s speed=0.581x    frame=  185 fps= 33 q=-0.0 size=   73472KiB time=00:00:03.24 bitrate=185594.5kbits/s speed=0.586x    frame=  204 fps= 34 q=-0.0 size=   80640KiB time=00:00:03.57 bitrate=184784.1kbits/s speed=0.591x    frame=  221 fps= 34 q=-0.0 size=   87296KiB time=00:00:03.86 bitrate=185218.6kbits/s speed=0.589x    frame=  240 fps= 34 q=-0.0 size=   94720KiB time=00:00:04.19 bitrate=185013.5kbits/s speed=0.594x    frame=  258 fps= 34 q=-0.0 size=  101632KiB time=00:00:04.50 bitrate=184646.2kbits/s speed=0.596x    frame=  273 fps= 34 q=-0.0 size=  107520KiB time=00:00:04.80 bitrate=183157.4kbits/s speed=0.596x    frame=  299 fps= 35 q=-0.0 size=  117504KiB time=00:00:05.20 bitrate=184794.2kbits/s speed=0.607x    frame=  313 fps= 34 q=-0.0 size=  122880KiB time=00:00:05.45 bitrate=184398.8kbits/s speed=0.601x    frame=  326 fps= 34 q=-0.0 size=  127744KiB time=00:00:05.67 bitrate=184369.1kbits/s speed=0.591x    frame=  336 fps= 33 q=-0.0 size=  131840KiB time=00:00:05.84 bitrate=184873.9kbits/s speed=0.577x    frame=  361 fps= 34 q=-0.0 size=  141312KiB time=00:00:06.29 bitrate=183925.7kbits/s speed=0.592x    frame=  375 fps= 34 q=-0.0 size=  146688KiB time=00:00:06.52 bitrate=184107.3kbits/s speed=0.586x    frame=  391 fps= 34 q=-0.0 size=  153088KiB time=00:00:06.81 bitrate=184128.2kbits/s speed=0.584x    frame=  406 fps= 33 q=-0.0 size=  159232KiB time=00:00:07.07 bitrate=184293.4kbits/s speed=0.582x    frame=  422 fps= 33 q=-0.0 size=  165376KiB time=00:00:07.34 bitrate=184446.6kbits/s speed=0.58x    frame=  443 fps= 34 q=-0.0 size=  173312KiB time=00:00:07.71 bitrate=184099.1kbits/s speed=0.585x    frame=  458 fps= 33 q=-0.0 size=  179200KiB time=00:00:07.96 bitrate=184423.0kbits/s speed=0.582x    frame=  475 fps= 33 q=-0.0 size=  185600KiB time=00:00:08.26 bitrate=184049.8kbits/s speed=0.583x    frame=  497 fps= 34 q=-0.0 size=  194560KiB time=00:00:08.63 bitrate=184664.1kbits/s speed=0.588x    frame=  514 fps= 34 q=-0.0 size=  201216KiB time=00:00:08.92 bitrate=184628.3kbits/s speed=0.588x    frame=  531 fps= 34 q=-0.0 size=  208128KiB time=00:00:09.22 bitrate=184762.1kbits/s speed=0.588x    frame=  554 fps= 34 q=-0.0 size=  217344KiB time=00:00:09.62 bitrate=184946.7kbits/s speed=0.594x    frame=  573 fps= 34 q=-0.0 size=  225280KiB time=00:00:09.94 bitrate=185588.7kbits/s speed=0.595x    [out#0/mov @ 0x13d7068c0] video:227357KiB audio:0KiB subtitle:0KiB other streams:0KiB global headers:0KiB muxing overhead: 0.003301%
frame=  577 fps= 34 q=-0.0 Lsize=  227364KiB time=00:00:10.01 bitrate=186052.3kbits/s speed=0.597x    
